<?xml version="1.0" encoding="UTF-8"?> <!-- Generator: Adobe Illustrator 23.0.3, SVG Export Plug-In . SVG Version: 6.00 Build 0) --> <svg xmlns="http://www.w3.org/2000/svg" xmlns:xlink="http://www.w3.org/1999/xlink" version="1.1" id="logosvg.com" x="0px" y="0px" viewBox="0 0 400 300" style="enable-background:new 0 0 400 300;" xml:space="preserve"> <style type="text/css"> .st0{fill:#E20A16;} </style> <path id="black" d="M61.5,135c-3.3,0-6,2.7-6,6v22.5c0,3.3,2.7,6,6,6h8v4.5H77v-4.5h8.5c3.3,0,6-2.7,6-6V141c0-3.3-2.7-6-6-6H61.5z M63,141h20.5v22H77v-3.5h-7.5v3.5H63V141z M20,135c-3.3,0-6,2.7-6,6v8c0,3.3,2.7,6,6,6h22h1v8h-1H28.5h-6h-1H13v0.5 c0,3.3,2.7,6,6,6h2.5h1h21c3.3,0,6-2.7,6-6v-9c0-3.3-2.7-6-6-6H42H20.5V141H42v3h7v-3c0-3.3-2.7-6-6-6H20z M97.5,135v6v22.5 c0,3.3,2.7,6,6,6h4h4.5h0.5h4h8.5c3.3,0,6-2.7,6-6V141v-6h-4.5H124h-0.5v28h-7h-4H112h-4.5H105v-28h-1.5H97.5z M149.7,135.5 l-17.2,34h7.5l3.8-7.5h19.4l3.8,7.5h7.5l-17.2-34L157,135h-7L149.7,135.5z M153.5,142.9l6.7,13.1h-13.3L153.5,142.9z M178,135v6v9.5 v19h7.5v-13h4.7l12.5,13h10l-12.5-13h3.7c3.3,0,6-2.7,6-6V141c0-3.3-2.7-6-6-6h-18.5H184H178z M185.5,141h15c1.1,0,2,0.9,2,2v5.5 c0,1.1-0.9,2-2,2h-15V141z M216.5,135v34.5h29V163H224v-22h21.5v-6H216.5z M261.5,135v34.5h29V163H269v-22h21.5v-6H261.5z M296.5,135v1.7v32.7h7v-24.4l18,21.5l0.5,0.6l2,2.3h1.5h3h0.5V135h-0.5h-7v23.2l-18-21.5L302,135H296.5z M335,135h8v34.5h-8V135z M346.9,135l15,16.7l-15.1,17.8h9l10.7-12.7l11.4,12.7h9l-16-17.8l14.1-16.7h-9l-9.8,11.5L355.9,135H346.9z"></path> <path id="red" class="st0" d="M230.5,148.5H243v6.5h-12.5V148.5z M275.5,148.5H288v6.5h-12.5V148.5z"></path> </svg> 